<svg id="Livello_1" data-name="Livello 1" xmlns="http://www.w3.org/2000/svg" viewBox="0 0 430.43 117.73"><defs><style>.cls-1{fill:#f5f3e9;}.cls-2{fill:none;}</style></defs><path class="cls-1" d="M320,89.72a11,11,0,1,0,10.69,11A10.85,10.85,0,0,0,320,89.72Z"/><path class="cls-1" d="M320,7.58a14.79,14.79,0,0,0-14.59,15c0,4.24,1.19,7.37,4.42,11.26,6,7.21,12.55,18.5,4.33,32.09a9.65,9.65,0,0,0-1.76,5,7.67,7.67,0,0,0,7.55,7.76H320a7.65,7.65,0,0,0,7.51-7.76,9.55,9.55,0,0,0-1.75-5c-8.22-13.59-1.63-24.89,4.34-32.09,3.24-3.89,4.42-7,4.42-11.26A14.8,14.8,0,0,0,320,7.58Z"/><polygon class="cls-1" points="358.99 106.34 352.58 91.28 349.91 91.28 349.91 109.94 352.57 109.94 352.57 98.06 357.65 109.94 360.38 109.94 365.43 98.06 365.43 109.94 368.09 109.94 368.09 91.28 365.41 91.28 358.99 106.34"/><path class="cls-1" d="M381.16,104.05a3.33,3.33,0,0,1-1,2.41,3.12,3.12,0,0,1-2.34,1,3.19,3.19,0,0,1-2.34-1,3.35,3.35,0,0,1-1-2.41V95.84h-2.66v8.21a6.27,6.27,0,0,0,1.55,4.27,5.06,5.06,0,0,0,4,1.86,5.34,5.34,0,0,0,3.76-1.5v1.26h2.67V95.84h-2.67v8.21Z"/><path class="cls-1" d="M394.17,102.82a5.36,5.36,0,0,0-.87-.5c-.44-.22-1-.51-1.8-.84-1-.44-1.44-1-1.44-1.63a1.42,1.42,0,0,1,.43-1,1.36,1.36,0,0,1,1-.46c.74,0,1.22.47,1.41,1.41l2.6-.68a4.55,4.55,0,0,0-1.42-2.49,3.78,3.78,0,0,0-2.6-1,3.86,3.86,0,0,0-2.91,1.26,4.23,4.23,0,0,0-1.21,3,3.75,3.75,0,0,0,1.46,3.2,17.77,17.77,0,0,0,2.66,1.36c1,.41,1.44,1,1.44,1.61a1.5,1.5,0,0,1-1.48,1.46c-.8,0-1.3-.48-1.48-1.44l-2.57.71a4.34,4.34,0,0,0,1.44,2.5,3.87,3.87,0,0,0,2.6.93,4.15,4.15,0,0,0,4.12-4.16A3.72,3.72,0,0,0,394.17,102.82Z"/><path class="cls-1" d="M406,95.62a6.76,6.76,0,0,0-5,2.16,7.39,7.39,0,0,0,0,10.28,7,7,0,0,0,11.07-1.33l-2.23-1.5a4.4,4.4,0,0,1-3.82,2.26,4.24,4.24,0,0,1-2.6-.87,4.56,4.56,0,0,1-1.62-2.32h11.22a7,7,0,0,0,.13-1.37,7.15,7.15,0,0,0-2.09-5.13A6.76,6.76,0,0,0,406,95.62Zm-4.23,5.95a4.69,4.69,0,0,1,1.62-2.31,4.1,4.1,0,0,1,2.6-.91,4.17,4.17,0,0,1,2.62.91,4.57,4.57,0,0,1,1.63,2.31Z"/><path class="cls-1" d="M428.34,97.78a6.9,6.9,0,0,0-10,0,7.42,7.42,0,0,0,0,10.28,6.85,6.85,0,0,0,5,2.12,6.77,6.77,0,0,0,5-2.12,7.37,7.37,0,0,0,0-10.28Zm-1.88,8.36a4.35,4.35,0,0,1-6.26,0,4.68,4.68,0,0,1,0-6.45,4.3,4.3,0,0,1,6.26,0,4.53,4.53,0,0,1,1.31,3.21A4.48,4.48,0,0,1,426.46,106.14Z"/><path class="cls-1" d="M101.52,80.23H152a5.68,5.68,0,0,0,5.59-5.76V22.57A5.68,5.68,0,0,0,152,16.81H101.52a5.68,5.68,0,0,0-5.59,5.76v51.9A5.68,5.68,0,0,0,101.52,80.23Zm8.27-44.65a6.52,6.52,0,0,1,8.51,3.87,4.63,4.63,0,0,0,6,2.75A4.86,4.86,0,0,0,127,36a6.84,6.84,0,0,1,3.75-8.75,6.53,6.53,0,0,1,8.52,3.87,6.85,6.85,0,0,1-3.75,8.76,4.84,4.84,0,0,0-2.67,6.21,4.63,4.63,0,0,0,6.06,2.75,6.51,6.51,0,0,1,8.49,3.87,6.83,6.83,0,0,1-3.75,8.76,6.51,6.51,0,0,1-8.5-3.87,4.61,4.61,0,0,0-6-2.74,4.85,4.85,0,0,0-2.67,6.22,6.83,6.83,0,0,1-3.75,8.76,6.54,6.54,0,0,1-8.52-3.88,6.82,6.82,0,0,1,3.75-8.75A4.85,4.85,0,0,0,120.58,51a4.63,4.63,0,0,0-6-2.75,6.5,6.5,0,0,1-8.5-3.86A6.86,6.86,0,0,1,109.79,35.58Z"/><path class="cls-1" d="M13.6,100.1a5.22,5.22,0,0,0,1.26-3.46,5.28,5.28,0,0,0-1.55-3.78,5,5,0,0,0-3.66-1.59H0v18.67H2.66V102H7.48l4.45,7.94H15l-4.52-8A5,5,0,0,0,13.6,100.1ZM2.66,99.26V94h7a2.47,2.47,0,0,1,1.8.77,2.68,2.68,0,0,1,0,3.72,2.39,2.39,0,0,1-1.8.78Z"/><path class="cls-1" d="M24.78,95.61a6.74,6.74,0,0,0-5,2.16,7.42,7.42,0,0,0,0,10.3,6.8,6.8,0,0,0,5,2.11,6.9,6.9,0,0,0,6-3.45l-2.23-1.51a4.37,4.37,0,0,1-3.81,2.26,4.25,4.25,0,0,1-2.62-.89,4.6,4.6,0,0,1-1.62-2.31H31.77a7.88,7.88,0,0,0,.11-1.36,7.15,7.15,0,0,0-2.09-5.15A6.75,6.75,0,0,0,24.78,95.61Zm-4.24,6a4.63,4.63,0,0,1,1.62-2.32,4.25,4.25,0,0,1,5.23,0A4.5,4.5,0,0,1,29,101.57Z"/><path class="cls-1" d="M46.24,97.55a6.5,6.5,0,0,0-4.66-1.94,6.36,6.36,0,0,0-4.87,2.17,7.57,7.57,0,0,0,0,10.25,6.65,6.65,0,0,0,9.51.27A5.51,5.51,0,0,1,45,111.58a4,4,0,0,1-3.15,1.33A4.37,4.37,0,0,1,38,110.65l-2.25,1.5a8.33,8.33,0,0,0,2.64,2.55,6.78,6.78,0,0,0,3.42.94,6.69,6.69,0,0,0,5-2.16,7,7,0,0,0,2.11-5.09V95.84H46.26v1.71Zm-1.31,8.58a4.34,4.34,0,0,1-6.27,0,4.64,4.64,0,0,1,0-6.42,4.32,4.32,0,0,1,6.27,0,4.59,4.59,0,0,1,0,6.42Z"/><rect class="cls-1" x="53.95" y="95.83" width="2.67" height="14.11"/><rect class="cls-1" x="53.95" y="91.27" width="2.67" height="2.71"/><path class="cls-1" d="M67.65,95.61a6.74,6.74,0,0,0-5,2.16,7.42,7.42,0,0,0,0,10.3,7,7,0,0,0,10,0,7.39,7.39,0,0,0,0-10.3A6.72,6.72,0,0,0,67.65,95.61Zm3.13,10.52a4.34,4.34,0,0,1-6.27,0,4.65,4.65,0,0,1,0-6.43,4.23,4.23,0,0,1,3.14-1.35,4.17,4.17,0,0,1,3.13,1.35,4.6,4.6,0,0,1,0,6.43Z"/><path class="cls-1" d="M85.14,95.61a5.26,5.26,0,0,0-3.77,1.56V95.84H78.7V110h2.66v-8.16a3.3,3.3,0,0,1,1-2.41,3.17,3.17,0,0,1,4.66,0,3.38,3.38,0,0,1,1,2.41V110h2.66v-8.16a6.35,6.35,0,0,0-1.54-4.27A5,5,0,0,0,85.14,95.61Z"/><path class="cls-1" d="M101.7,95.61a6.7,6.7,0,0,0-5,2.16,7.42,7.42,0,0,0,0,10.3,6.76,6.76,0,0,0,5,2.11,6.9,6.9,0,0,0,6-3.45l-2.23-1.51a4.37,4.37,0,0,1-3.81,2.26,4.21,4.21,0,0,1-2.61-.89,4.61,4.61,0,0,1-1.63-2.31h11.22a7.88,7.88,0,0,0,.11-1.36,7.11,7.11,0,0,0-2.09-5.15A6.72,6.72,0,0,0,101.7,95.61Zm-4.23,6a4.59,4.59,0,0,1,1.63-2.32,4.23,4.23,0,0,1,5.22,0,4.5,4.5,0,0,1,1.62,2.32Z"/><polygon class="cls-1" points="116.26 91.28 113.6 91.28 113.6 109.94 125.13 109.94 125.13 107.24 116.26 107.24 116.26 91.28"/><path class="cls-1" d="M133.94,95.61a6.75,6.75,0,0,0-5,2.16,7.42,7.42,0,0,0,0,10.3,7,7,0,0,0,10,0,7.39,7.39,0,0,0,0-10.3A6.73,6.73,0,0,0,133.94,95.61Zm3.12,10.52a4.31,4.31,0,0,1-6.25,0,4.63,4.63,0,0,1,0-6.43,4.21,4.21,0,0,1,3.13-1.35,4.15,4.15,0,0,1,3.12,1.35,4.58,4.58,0,0,1,0,6.43Z"/><path class="cls-1" d="M158.3,95.61a5,5,0,0,0-4,1.82,4.32,4.32,0,0,0-3.57-1.82,4.78,4.78,0,0,0-3.11,1.11v-.89H145v14.11h2.66v-8.62a3.11,3.11,0,0,1,.72-2.14,2.45,2.45,0,0,1,1.94-.83,2.36,2.36,0,0,1,1.89.9,3.13,3.13,0,0,1,.77,2.08V110h2.66v-8.62a3.19,3.19,0,0,1,.7-2.14,2.48,2.48,0,0,1,2-.83,2.35,2.35,0,0,1,1.88.9,3.13,3.13,0,0,1,.77,2.08V110h2.66v-8.62a5.83,5.83,0,0,0-1.53-4A4.83,4.83,0,0,0,158.3,95.61Z"/><path class="cls-1" d="M176,95.61a6.39,6.39,0,0,0-4.65,1.94V91.28h-2.67V110h2.67v-1.67a6.48,6.48,0,0,0,4.65,1.9,6.36,6.36,0,0,0,4.85-2.14,7.2,7.2,0,0,0,2-5.12,7.33,7.33,0,0,0-2-5.14A6.4,6.4,0,0,0,176,95.61Zm2.89,10.52a4.29,4.29,0,0,1-6.23,0,4.63,4.63,0,0,1,0-6.43,4.2,4.2,0,0,1,3.12-1.35,4.13,4.13,0,0,1,3.11,1.35,4.58,4.58,0,0,1,0,6.43Z"/><path class="cls-1" d="M197.22,97.55a6.56,6.56,0,0,0-9.53.23,7.58,7.58,0,0,0,0,10.26,6.64,6.64,0,0,0,9.53.24V110h2.66V95.83h-2.66Zm-1.31,8.58a4.34,4.34,0,0,1-6.27,0,4.64,4.64,0,0,1,0-6.42,4.32,4.32,0,0,1,6.27,0,4.59,4.59,0,0,1,0,6.42Z"/><path class="cls-1" d="M207.6,95.84h-2.67V110h2.67v-8.17a3.18,3.18,0,0,1,1.05-2.45,3.58,3.58,0,0,1,2.5-1V95.61a4.8,4.8,0,0,0-3.54,1.45V95.84Z"/><path class="cls-1" d="M225,97.55a6.57,6.57,0,0,0-9.54.23,7.58,7.58,0,0,0,0,10.26,6.65,6.65,0,0,0,9.54.24V110h2.66V91.28H225Zm-1.31,8.58a4.33,4.33,0,0,1-6.26,0,4.61,4.61,0,0,1,0-6.42,4.3,4.3,0,0,1,6.26,0,4.59,4.59,0,0,1,0,6.42Z"/><rect class="cls-1" x="232.66" y="95.83" width="2.66" height="14.11"/><rect class="cls-1" x="232.66" y="91.27" width="2.66" height="2.71"/><path class="cls-1" d="M250.79,97.55a6.56,6.56,0,0,0-9.53.23,7.58,7.58,0,0,0,0,10.26,6.64,6.64,0,0,0,9.53.24V110h2.66V95.83h-2.66Zm-1.3,8.58a4.34,4.34,0,0,1-6.27,0,4.64,4.64,0,0,1,0-6.42,4.32,4.32,0,0,1,6.27,0,4.59,4.59,0,0,1,0,6.42Z"/><rect class="cls-1" x="279.22" width="1.72" height="117.73"/><path class="cls-2" d="M109.79,35.58a6.52,6.52,0,0,1,8.51,3.87,4.63,4.63,0,0,0,6,2.75A4.86,4.86,0,0,0,127,36a6.84,6.84,0,0,1,3.75-8.75,6.53,6.53,0,0,1,8.52,3.87,6.85,6.85,0,0,1-3.75,8.76,4.84,4.84,0,0,0-2.67,6.21,4.63,4.63,0,0,0,6.06,2.75,6.51,6.51,0,0,1,8.49,3.87,6.83,6.83,0,0,1-3.75,8.76,6.51,6.51,0,0,1-8.5-3.87,4.61,4.61,0,0,0-6-2.74,4.85,4.85,0,0,0-2.67,6.22,6.83,6.83,0,0,1-3.75,8.76,6.54,6.54,0,0,1-8.52-3.88,6.82,6.82,0,0,1,3.75-8.75A4.85,4.85,0,0,0,120.58,51a4.63,4.63,0,0,0-6-2.75,6.5,6.5,0,0,1-8.5-3.86A6.86,6.86,0,0,1,109.79,35.58Z"/></svg>