<svg id="Livello_1" data-name="Livello 1" xmlns="http://www.w3.org/2000/svg" viewBox="0 0 136.71 32.41"><defs><style>.cls-1{fill:#f5f3e9;}</style></defs><g id="Livello_2" data-name="Livello 2"><g id="Livello_1-2" data-name="Livello 1-2"><polygon class="cls-1" points="73.95 18.75 75.03 26.22 69.39 27.98 67.22 20.8 60.1 25 56.69 20.24 62.75 15.39 56.92 10.82 60.37 5.97 68.18 10.94 70.83 3.48 74.71 4.89 72.23 12.81 80.58 12.83 80.6 18.7 73.95 18.75"/><path class="cls-1" d="M46.69,9.73l2.57,9.14H44.12ZM42.51.46l-8.26,26.6V.46H21.53L17.22,17.17h-.1L12.62.46H0V32H7.25V9.46h.09L13.27,32h6.15L25.16,9.46h.09V32H40.58l1.93-6.2h8.4L52.7,32h9.87L52.7.46Z"/><path class="cls-1" d="M118.25,18.87l2.57-9.14,2.57,9.14ZM126.84.46h-10.2l-8.26,26.6V14.32H94.2V21h5.19c0,2.48-1.84,4-4.32,4a4.61,4.61,0,0,1-4.32-3,15.35,15.35,0,0,1-.82-5.78C89.93,13,90.2,7,94.66,7c2.94,0,4,2.39,4.36,4.91l9.36-1C107,3.72,102.14,0,94.84,0,90.2,0,86.39,1.24,83.41,5a18.66,18.66,0,0,0-3.67,11.71c0,8.63,4.91,15.7,14.09,15.7,3.26,0,6.57-1.1,8.54-3.76l1.28,3.3h11.07l1.92-6.2h8.41l1.79,6.2h9.87Z"/></g></g></svg>